<mxfile host="app.diagrams.net" modified="2021-06-02T14:53:46.929Z" agent="5.0 (Windows NT 10.0; Win64; x64) AppleWebKit/537.36 (KHTML, like Gecko) Chrome/90.0.4430.212 Safari/537.36" etag="MBPexQ9JyjZl5JnhvJbJ" version="14.6.13" type="github">
  <diagram id="z6lxiCS5bTPtnJwJAkri" name="Page-1">
    <mxGraphModel dx="1209" dy="643" grid="1" gridSize="10" guides="1" tooltips="1" connect="1" arrows="1" fold="1" page="1" pageScale="1" pageWidth="827" pageHeight="1169" math="0" shadow="0">
      <root>
        <mxCell id="0" />
        <mxCell id="1" parent="0" />
        <mxCell id="Acn9G3id7ki6_PeFdA2S-1" value="" style="ellipse;whiteSpace=wrap;html=1;aspect=fixed;" vertex="1" parent="1">
          <mxGeometry x="170" y="130" width="80" height="80" as="geometry" />
        </mxCell>
        <mxCell id="Acn9G3id7ki6_PeFdA2S-2" value="" style="ellipse;whiteSpace=wrap;html=1;aspect=fixed;" vertex="1" parent="1">
          <mxGeometry x="170" y="370" width="80" height="80" as="geometry" />
        </mxCell>
        <mxCell id="Acn9G3id7ki6_PeFdA2S-3" value="" style="ellipse;whiteSpace=wrap;html=1;aspect=fixed;" vertex="1" parent="1">
          <mxGeometry x="440" y="130" width="80" height="80" as="geometry" />
        </mxCell>
        <mxCell id="Acn9G3id7ki6_PeFdA2S-4" value="" style="ellipse;whiteSpace=wrap;html=1;aspect=fixed;" vertex="1" parent="1">
          <mxGeometry x="440" y="370" width="80" height="80" as="geometry" />
        </mxCell>
      </root>
    </mxGraphModel>
  </diagram>
</mxfile>
